<svg xmlns="http://www.w3.org/2000/svg" version="1.1" xmlns:xlink="http://www.w3.org/1999/xlink"
    xmlns:svgjs="http://svgjs.dev/svgjs" width="1000" height="623" viewBox="0 0 1000 623">
    <g transform="matrix(1,0,0,1,-0.6060606060606233,0.2522267206477409)"><svg viewBox="0 0 396 247"
            data-background-color="#ffffff" preserveAspectRatio="xMidYMid meet" height="623" width="1000"
            xmlns="http://www.w3.org/2000/svg" xmlns:xlink="http://www.w3.org/1999/xlink">
            <g id="tight-bounds" transform="matrix(1,0,0,1,0.2400000000000091,-0.09999999999999432)"><svg
                    viewBox="0 0 395.52 247.2" height="247.2" width="395.52">
                    <g><svg></svg></g>
                    <g><svg viewBox="0 0 395.52 247.2" height="247.2" width="395.52">
                            <g transform="matrix(1,0,0,1,75.54432,110.50444612159329)"><svg
                                    viewBox="0 0 244.43135999999998 26.191107756813416" height="26.191107756813416"
                                    width="244.43135999999998">
                                    <g><svg viewBox="0 0 244.43135999999998 26.191107756813416"
                                            height="26.191107756813416" width="244.43135999999998">
                                            <g><svg viewBox="0 0 244.43135999999998 26.191107756813416"
                                                    height="26.191107756813416" width="244.43135999999998">
                                                    <g><svg viewBox="0 0 244.43135999999998 26.191107756813416"
                                                            height="26.191107756813416" width="244.43135999999998">
                                                            <g id="textblocktransform"><svg
                                                                    viewBox="0 0 244.43135999999998 26.191107756813416"
                                                                    height="26.191107756813416"
                                                                    width="244.43135999999998" id="textblock">
                                                                    <g><svg viewBox="0 0 244.43135999999998 26.191107756813416"
                                                                            height="26.191107756813416"
                                                                            width="244.43135999999998">
                                                                            <g transform="matrix(1,0,0,1,0,0)"><svg
                                                                                    width="244.43135999999998"
                                                                                    viewBox="4.2 -33.08 313.01 33.69"
                                                                                    height="26.191107756813416"
                                                                                    data-palette-color="#ffffff">
                                                                                    <g class="wordmark-text-0"
                                                                                        data-fill-palette-color="primary"
                                                                                        id="text-0">
                                                                                        <path
                                                                                            d="M20.36 0.2L14.7-12.62Q13.96-12.57 13.13-12.57 12.3-12.57 10.67-12.7L10.67-12.7 10.67 0 4.2 0 4.2-32.64Q7.62-33.08 12.6-33.08L12.6-33.08Q19.38-33.08 22.72-30.58 26.05-28.08 26.05-22.85L26.05-22.85Q26.05-18.8 23-15.92L23-15.92Q22-14.99 20.7-14.31L20.7-14.31 25.68-3.81Q27.15-0.56 27.93 0.05L27.93 0.05 27.81 0.17Q25.44-0.22 20.36 0.2L20.36 0.2ZM13.06-27.32L13.06-27.32Q11.82-27.32 10.67-27.2L10.67-27.2 10.67-17.87Q11.87-17.7 13.48-17.7 15.09-17.7 16.19-17.98 17.29-18.26 18.09-18.85L18.09-18.85Q19.82-20.14 19.82-22.73 19.82-25.32 18.02-26.37L18.02-26.37Q16.33-27.32 13.06-27.32ZM35.98-3.86Q33.76-5.98 32.48-8.96 31.2-11.94 31.2-15.49 31.2-19.04 32.39-22.22 33.59-25.39 35.81-27.81 38.03-30.22 41.18-31.65 44.33-33.08 48.24-33.08L48.24-33.08Q54.98-33.08 59.59-28.83L59.59-28.83Q64.52-24.29 64.52-16.58L64.52-16.58Q64.52-9.11 59.45-4.15L59.45-4.15Q56.32-1.1 52 0.05L52 0.05Q49.88 0.61 47.03 0.61 44.19 0.61 41.2-0.56 38.21-1.73 35.98-3.86ZM37.99-15.82L37.99-15.82Q37.99-13.55 38.74-11.65 39.5-9.74 40.84-8.37L40.84-8.37Q43.7-5.49 48.19-5.49L48.19-5.49Q52.46-5.49 55.05-8.25L55.05-8.25Q57.69-11.11 57.69-16.04L57.69-16.04Q57.69-20.68 55.17-23.78L55.17-23.78Q52.46-27.1 47.75-27.1L47.75-27.1Q43.19-27.1 40.5-23.73L40.5-23.73Q37.99-20.58 37.99-15.82ZM84.93 0L77.61 0Q77.92-0.95 77.92-4.44L77.92-4.44 77.92-11.23Q73.7-20.53 72.53-22.84 71.36-25.15 70.55-26.49L70.55-26.49Q68.01-30.79 67.49-31.42 66.96-32.06 66.43-32.47L66.43-32.47 74.85-32.47Q75.12-31.98 75.58-31.03L75.58-31.03 81.49-18.55Q81.9-19.58 82.47-20.85L82.47-20.85Q87.79-32.3 87.86-32.47L87.86-32.47 95.92-32.47Q94.67-31.47 92.87-28.27L92.87-28.27Q92.3-27.32 91.74-26.1L91.74-26.1 86.23-14.6Q85.3-12.52 84.64-10.86L84.64-10.86 84.64-3.86Q84.64-1.42 84.93 0L84.93 0ZM104.58-7.03L102.29 0.2Q100.19 0 97.38 0L97.38 0 95.45 0 106.07-29.76Q106.78-31.76 106.78-32.09 106.78-32.42 106.76-32.5L106.76-32.5 106.78-32.54Q108.37-32.47 110.15-32.47L110.15-32.47Q111.61-32.47 113.66-32.52L113.66-32.52 113.69-32.47Q113.64-32.37 113.64-32.2L113.64-32.2Q113.64-31.74 114.37-29.74L114.37-29.74 125.21 0.07Q124.72 0.05 124.06 0.05L124.06 0.05Q124.06 0.05 122.8 0L122.8 0Q122.18 0 121.7 0L121.7 0 117.91 0 115.62-7.03 104.58-7.03ZM106.44-12.89L113.71-12.89 110.03-24.24 106.44-12.89ZM136.22 0L133.9 0Q130.31 0 129.14 0.15L129.14 0.15 129.14-32.62Q129.73-32.47 131.57-32.47 133.41-32.47 135.85-32.57L135.85-32.57 135.85-5.86 140.91-5.86Q143.11-5.86 144.42-6.01L144.42-6.01Q144.25-0.29 144.25-0.07L144.25-0.07 144.25 0.17Q141.86 0 136.22 0L136.22 0Z"
                                                                                            fill="#ffffff"
                                                                                            data-fill-palette-color="primary">
                                                                                        </path>
                                                                                        <path
                                                                                            d="M171.57-5.86L181.53-5.86Q183.04-5.86 183.63-6.15L183.63-6.15 183.72-6.13 183.48 0 165.19 0 165.19-32.64Q165.85-32.59 166.66-32.57L166.66-32.57 168.37-32.52Q170.08-32.47 172.08-32.47L172.08-32.47Q177.67-32.47 183.14-32.67L183.14-32.67Q182.87-30.52 182.87-26.93L182.87-26.93Q182.87-26.54 182.92-26.34L182.92-26.34 182.87-26.27Q181.6-26.64 179.26-26.64L179.26-26.64 171.57-26.64 171.57-20.41 177.35-20.41Q180.04-20.41 180.57-20.56L180.57-20.56 180.65-14.53Q179.48-14.65 177.62-14.65L177.62-14.65 171.57-14.65 171.57-5.86ZM209.84-30.66L209.84-30.66 209.38-23.49 209.21-23.44Q207.4-26.15 203.06-26.95L203.06-26.95Q201.69-27.22 200.43-27.22 199.18-27.22 198.28-27 197.39-26.78 196.76-26.37L196.76-26.37Q195.42-25.49 195.42-24.07L195.42-24.07Q195.42-22.22 196.59-21.29L196.59-21.29Q198.05-20.17 201.45-19.71 204.84-19.26 206.89-18.48 208.94-17.7 210.26-16.5L210.26-16.5Q212.75-14.26 212.75-10.16L212.75-10.16Q212.75-4.79 208.7-1.88L208.7-1.88Q205.23 0.61 199.96 0.61L199.96 0.61Q195.71 0.61 191.56-1L191.56-1Q190.19-1.54 189.17-2.25L189.17-2.25 189.43-10.4 189.53-10.47Q192.56-5.25 199.47-5.25L199.47-5.25Q204.38-5.25 205.96-7.62L205.96-7.62Q206.5-8.42 206.5-9.41 206.5-10.4 206.18-11.05 205.87-11.69 205.13-12.16L205.13-12.16Q203.72-13.09 200.37-13.4 197.03-13.72 194.9-14.6 192.78-15.48 191.51-16.77L191.51-16.77Q189.21-19.12 189.21-23.32L189.21-23.32Q189.21-27.66 192.27-30.35L192.27-30.35Q195.37-33.08 200.63-33.08 205.89-33.08 209.84-30.66ZM231.08-27L231.08 0.15Q229.91 0 225.05 0L225.05 0 224.27 0 224.27-27 219.44-27Q217.29-27 216.9-26.78 216.51-26.56 216.29-26.39L216.29-26.39 216.21-26.42 216.21-32.67 216.29-32.74Q217.09-32.47 220.63-32.47L220.63-32.47 235.94-32.47Q238.09-32.47 238.48-32.69 238.87-32.91 239.09-33.08L239.09-33.08 239.16-33.06 239.16-26.81 239.09-26.73Q238.28-27 234.74-27L234.74-27 231.08-27ZM249.07-7.03L246.78 0.2Q244.68 0 241.87 0L241.87 0 239.94 0 250.56-29.76Q251.27-31.76 251.27-32.09 251.27-32.42 251.25-32.5L251.25-32.5 251.27-32.54Q252.86-32.47 254.64-32.47L254.64-32.47Q256.1-32.47 258.16-32.52L258.16-32.52 258.18-32.47Q258.13-32.37 258.13-32.2L258.13-32.2Q258.13-31.74 258.86-29.74L258.86-29.74 269.7 0.07Q269.21 0.05 268.56 0.05L268.56 0.05Q268.56 0.05 267.29 0L267.29 0Q266.68 0 266.19 0L266.19 0 262.4 0 260.11-7.03 249.07-7.03ZM250.93-12.89L258.2-12.89 254.52-24.24 250.93-12.89ZM285.35-27L285.35 0.15Q284.18 0 279.32 0L279.32 0 278.54 0 278.54-27 273.7-27Q271.56-27 271.17-26.78 270.77-26.56 270.55-26.39L270.55-26.39 270.48-26.42 270.48-32.67 270.55-32.74Q271.36-32.47 274.9-32.47L274.9-32.47 290.21-32.47Q292.36-32.47 292.75-32.69 293.14-32.91 293.36-33.08L293.36-33.08 293.43-33.06 293.43-26.81 293.36-26.73Q292.55-27 289.01-27L289.01-27 285.35-27ZM305.05-5.86L315.01-5.86Q316.52-5.86 317.11-6.15L317.11-6.15 317.21-6.13 316.96 0 298.68 0 298.68-32.64Q299.34-32.59 300.14-32.57L300.14-32.57 301.85-32.52Q303.56-32.47 305.56-32.47L305.56-32.47Q311.15-32.47 316.62-32.67L316.62-32.67Q316.35-30.52 316.35-26.93L316.35-26.93Q316.35-26.54 316.4-26.34L316.4-26.34 316.35-26.27Q315.08-26.64 312.74-26.64L312.74-26.64 305.05-26.64 305.05-20.41 310.84-20.41Q313.52-20.41 314.06-20.56L314.06-20.56 314.13-14.53Q312.96-14.65 311.1-14.65L311.1-14.65 305.05-14.65 305.05-5.86Z"
                                                                                            fill="#ffffff"
                                                                                            data-fill-palette-color="secondary">
                                                                                        </path>
                                                                                    </g>
                                                                                </svg></g>
                                                                        </svg></g>
                                                                </svg></g>
                                                        </svg></g>
                                                </svg></g>
                                        </svg></g>
                                </svg></g>
                            <path
                                d="M172.716 104.504L172.716 39.684 4.884 39.684 4.884 207.516 172.716 207.516 172.716 142.696 170.354 142.696 170.354 205.154 7.246 205.154 7.246 42.046 170.354 42.046 170.354 104.504Z"
                                fill="#ffffff" stroke="transparent" data-fill-palette-color="primary"></path>
                        </svg></g>
                    <defs></defs>
                </svg>
                <rect width="395.52" height="247.2" fill="none" stroke="none" visibility="hidden"></rect>
            </g>
        </svg></g>
</svg>